<?xml version="1.0" encoding="UTF-8" standalone="no"?>
<!-- Created with Inkscape (http://www.inkscape.org/) -->

<svg
   xmlns:dc="http://purl.org/dc/elements/1.1/"
   xmlns:cc="http://creativecommons.org/ns#"
   xmlns:rdf="http://www.w3.org/1999/02/22-rdf-syntax-ns#"
   xmlns:svg="http://www.w3.org/2000/svg"
   xmlns="http://www.w3.org/2000/svg"
   xmlns:sodipodi="http://sodipodi.sourceforge.net/DTD/sodipodi-0.dtd"
   xmlns:inkscape="http://www.inkscape.org/namespaces/inkscape"
   width="300mm"
   height="300mm"
   viewBox="0 0 1062.9921 1062.9921"
   id="svg2"
   version="1.1"
   inkscape:version="0.91 r13725"
   sodipodi:docname="astrocats4.svg"
   inkscape:export-filename="C:\Development\UC Rocketry\Nasa SLI\Logo\astrocats3.png"
   inkscape:export-xdpi="90"
   inkscape:export-ydpi="90">
  <defs
     id="defs4" />
  <sodipodi:namedview
     id="base"
     pagecolor="#ffffff"
     bordercolor="#666666"
     borderopacity="1.0"
     inkscape:pageopacity="0.0"
     inkscape:pageshadow="2"
     inkscape:zoom="0.49497475"
     inkscape:cx="549.09831"
     inkscape:cy="613.86747"
     inkscape:document-units="px"
     inkscape:current-layer="layer1"
     showgrid="false"
     inkscape:window-width="1920"
     inkscape:window-height="1051"
     inkscape:window-x="1911"
     inkscape:window-y="-9"
     inkscape:window-maximized="1" />
  <metadata
     id="metadata7">
    <rdf:RDF>
      <cc:Work
         rdf:about="">
        <dc:format>image/svg+xml</dc:format>
        <dc:type
           rdf:resource="http://purl.org/dc/dcmitype/StillImage" />
        <dc:title></dc:title>
      </cc:Work>
    </rdf:RDF>
  </metadata>
  <g
     inkscape:label="Layer 1"
     inkscape:groupmode="layer"
     id="layer1"
     transform="translate(0,10.629921)"
     style="display:inline">
    <g
       id="g4337"
       transform="matrix(0.92276696,0,0,0.93655095,87.021339,-5.7076179)">
      <g
         transform="matrix(0.84293302,-0.87497895,0.84293302,0.87497895,-345.56397,433.6321)"
         id="g4239">
        <g
           id="g4187"
           transform="matrix(0,1.4962675,-1.9184124,0,1477.4781,116.23189)">
          <g
             id="g4181">
            <path
               style="display:inline;fill:#ff001f;fill-opacity:1;fill-rule:evenodd;stroke:none;stroke-width:0.87336296px;stroke-linecap:butt;stroke-linejoin:miter;stroke-opacity:1"
               d="m 215.24845,335.68612 c -34.36372,34.7223 -47.37617,21.81814 -101.57412,65.79541 0,0 98.95589,36.54099 101.80192,17.38449 2.84604,-19.1565 0.68665,-86.84793 -0.2278,-83.1799 z"
               id="path3371-1"
               inkscape:connector-curvature="0"
               sodipodi:nodetypes="cczc" />
          </g>
        </g>
      </g>
    </g>
    <path
       style="fill:#ffff00;fill-rule:evenodd;stroke:#000000;stroke-width:1.26064801px;stroke-linecap:butt;stroke-linejoin:miter;stroke-opacity:1"
       d="m 282.51625,566.84404 c -40.94004,217.47 -96.49313,316.34187 -122.23793,282.88527 -19.03981,-24.74315 -19.95804,-7.69725 -51.7472,-122.91287 C 97.336336,686.24248 42.387126,302.26799 42.387126,302.26799 c 0,0 -25.383364,445.30702 18.246889,541.88798 43.630255,96.58096 62.527965,122.48787 99.342925,133.88087 86.01073,-7.0488 87.56261,-95.46866 188.13623,-147.42872 136.94729,-70.75203 163.98075,-35.62679 163.98075,-35.62679 L 413.95016,627.03957 Z"
       id="path4346"
       inkscape:connector-curvature="0"
       sodipodi:nodetypes="cssczcsccc" />
    <g
       id="g4319"
       transform="matrix(0.94626732,0,0,0.95018541,69.377803,-4.1929707)">
      <path
         style="display:inline;fill:#ff001f;fill-opacity:1;fill-rule:evenodd;stroke:none;stroke-width:1.00877702px;stroke-linecap:butt;stroke-linejoin:miter;stroke-opacity:1"
         d="m 300.84462,232.47545 c 0,0 -66.0743,48.66615 -89.44373,120.10327 -23.36942,71.43713 13.64933,310.33775 13.64933,310.33775 l 75.13398,-25.07125 74.87306,25.07743 c 0,0 43.35938,-306.28525 18.9756,-378.46989 -1.67501,-4.95862 -18.27888,10.95743 -30.993,23.5257 -17.08057,16.88462 -17.23934,-4.00843 -18.98495,-13.01132 -1.74561,-9.00289 -3.39538,-29.97543 -8.71823,-36.46622 -16.80781,-20.49577 -34.49206,-26.02547 -34.49206,-26.02547 z"
         id="path3352"
         inkscape:connector-curvature="0"
         sodipodi:nodetypes="czcccsszsc"
         transform="matrix(1.2612533,1.3092026,-1.6170932,1.6785705,997.8268,-757.42968)" />
      <path
         style="display:inline;fill:#000000;fill-opacity:1;fill-rule:evenodd;stroke:#000000;stroke-width:1px;stroke-linecap:butt;stroke-linejoin:miter;stroke-opacity:1"
         d="m 209.37763,535.74449 c 0,0 -56.27912,21.57004 -59.62363,66.15988 -3.34451,44.58985 35.42458,129.20777 35.42458,129.20777 l 40,-68.57143 z"
         id="path3354"
         inkscape:connector-curvature="0"
         sodipodi:nodetypes="czccc"
         transform="matrix(1.2612533,1.3092026,-1.6170932,1.6785705,997.8268,-757.42968)" />
      <path
         style="display:inline;fill:#000000;fill-opacity:1;fill-rule:evenodd;stroke:#000000;stroke-width:1px;stroke-linecap:butt;stroke-linejoin:miter;stroke-opacity:1"
         d="m 390.67283,535.68021 c 0,0 56.27912,23.53476 59.62363,68.24136 3.34451,44.70659 -35.42458,127.97109 -35.42458,127.97109 l -40,-69.96784 z"
         id="path3354-5"
         inkscape:connector-curvature="0"
         sodipodi:nodetypes="czccc"
         transform="matrix(1.2612533,1.3092026,-1.6170932,1.6785705,997.8268,-757.42968)" />
      <path
         style="display:inline;fill:#000000;fill-opacity:1;fill-rule:evenodd;stroke:#000000;stroke-width:0.91275442px;stroke-linecap:butt;stroke-linejoin:miter;stroke-opacity:1"
         d="m 300.38501,532.20025 c 0,0 -8.80349,14.20704 -10.37302,22.23291 -12.42305,63.52607 9.76327,193.94258 9.76327,193.94258 0,0 21.54666,-130.64539 9.99077,-194.54143 -1.39885,-7.73466 -9.38102,-21.63406 -9.38102,-21.63406 z"
         id="path3371"
         inkscape:connector-curvature="0"
         sodipodi:nodetypes="cscsc"
         transform="matrix(1.2612533,1.3092026,-1.6170932,1.6785705,997.8268,-757.42968)" />
      <g
         id="g4343">
        <path
           transform="matrix(0.84293302,-0.87497895,0.84293302,0.87497895,-345.56397,433.6321)"
           sodipodi:nodetypes="zzcz"
           inkscape:connector-curvature="0"
           id="path4173"
           d="m 812.03878,520.22964 c -33.31525,-11.84118 -58.28496,-58.84145 -27.42224,-76.51307 30.86272,-17.67162 51.08809,63.73494 152.09843,78.3326 0,0 -91.36091,10.02163 -124.67619,-1.81953 z"
           style="display:inline;fill:#000000;fill-opacity:1;fill-rule:evenodd;stroke:none;stroke-width:2.80315304px;stroke-linecap:butt;stroke-linejoin:miter;stroke-opacity:1" />
      </g>
      <path
         style="display:inline;fill:#000000;fill-opacity:1;fill-rule:evenodd;stroke:#000000;stroke-width:2.06864643px;stroke-linecap:butt;stroke-linejoin:miter;stroke-opacity:1"
         d="m 1030.2683,568.12807 c -81.44796,-6.54021 -161.17577,-28.50779 -235.87387,-14.73371 78.82635,-10.25709 160.70202,15.64855 235.87387,14.73371 z"
         id="path4198"
         inkscape:connector-curvature="0"
         sodipodi:nodetypes="ccc"
         transform="matrix(0.84293302,-0.87497895,0.84293302,0.87497895,-345.56397,433.6321)" />
      <path
         style="display:inline;fill:#000000;fill-opacity:1;fill-rule:evenodd;stroke:#000000;stroke-width:1.41835189px;stroke-linecap:butt;stroke-linejoin:miter;stroke-opacity:1"
         d="m 1027.9685,568.59021 c -52.71089,3.96103 -131.56688,-4.02069 -172.0105,17.22201 44.12034,-19.43044 126.97637,-4.83635 172.0105,-17.22201 z"
         id="path4198-3"
         inkscape:connector-curvature="0"
         sodipodi:nodetypes="ccc"
         transform="matrix(0.84293302,-0.87497895,0.84293302,0.87497895,-345.56397,433.6321)" />
      <path
         style="display:inline;fill:#000000;fill-opacity:1;fill-rule:evenodd;stroke:#000000;stroke-width:1.59047639px;stroke-linecap:butt;stroke-linejoin:miter;stroke-opacity:1"
         d="m 1029.8252,567.99137 c -48.19481,19.77619 -91.05925,1.41517 -118.32246,37.63704 31.73956,-35.18636 81.95089,-10.33288 118.32246,-37.63704 z"
         id="path4198-3-7"
         inkscape:connector-curvature="0"
         sodipodi:nodetypes="ccc"
         transform="matrix(0.84293302,-0.87497895,0.84293302,0.87497895,-345.56397,433.6321)" />
      <path
         style="display:inline;fill:#c80014;fill-opacity:1;fill-rule:evenodd;stroke:none;stroke-width:2.80315304px;stroke-linecap:butt;stroke-linejoin:miter;stroke-opacity:1"
         d="m 687.16891,402.15385 c 12.64829,-28.04039 21.03669,-85.45441 21.03669,-85.45441 0,0 -3.66167,-19.62621 54.13667,64.64226 17.53174,25.56082 -74.66506,37.2667 -75.17336,20.81215 z"
         id="path4173-8"
         inkscape:connector-curvature="0"
         sodipodi:nodetypes="ccsc"
         transform="matrix(0.84293302,-0.87497895,0.84293302,0.87497895,-345.56397,433.6321)" />
      <path
         style="display:inline;fill:#c80014;fill-opacity:1;fill-rule:evenodd;stroke:none;stroke-width:2.80315304px;stroke-linecap:butt;stroke-linejoin:miter;stroke-opacity:1"
         d="m 1031.5604,567.29935 c 0,0 -32.03587,-2.26761 -39.90185,-6.28784 -17.49191,-8.93996 -17.64016,-17.71144 -2.62521,-32.72639 z"
         id="path4173-8-6"
         inkscape:connector-curvature="0"
         sodipodi:nodetypes="cscc"
         transform="matrix(0.84293302,-0.87497895,0.84293302,0.87497895,-345.56397,433.6321)" />
      <path
         style="display:inline;fill:#000000;fill-opacity:1;fill-rule:evenodd;stroke:#000000;stroke-width:1.4412843px;stroke-linecap:butt;stroke-linejoin:miter;stroke-opacity:1"
         d="m 1029.6769,568.4374 c -35.13561,26.18382 -71.78857,14.64298 -84.17144,52.07046 16.50596,-37.26466 85.10574,-32.02791 84.17144,-52.07046 z"
         id="path4198-3-7-7"
         inkscape:connector-curvature="0"
         sodipodi:nodetypes="ccc"
         transform="matrix(0.84293302,-0.87497895,0.84293302,0.87497895,-345.56397,433.6321)" />
      <path
         style="display:inline;fill:#ff001e;fill-opacity:1;fill-rule:evenodd;stroke:none;stroke-width:2.80315304px;stroke-linecap:butt;stroke-linejoin:miter;stroke-opacity:1"
         d="m 874.60354,434.04167 c -20.80908,-6.99107 -62.94784,-3.38808 -63.61025,9.73132 -0.66235,13.11942 63.64025,0.14954 111.90074,26.28746 0,0 -27.48135,-29.02769 -48.29049,-36.01878 z"
         id="path4173-5-8-2"
         inkscape:connector-curvature="0"
         sodipodi:nodetypes="zzcz"
         transform="matrix(0.84293302,-0.87497895,0.84293302,0.87497895,-345.56397,433.6321)" />
      <path
         style="display:inline;fill:#ff001e;fill-opacity:1;fill-rule:evenodd;stroke:none;stroke-width:2.80315304px;stroke-linecap:butt;stroke-linejoin:miter;stroke-opacity:1"
         d="m 877.28573,444.95627 c -25.33673,-13.23139 -68.23512,-22.15889 -62.72484,-9.15859 5.51046,13.00044 67.43486,19.10743 130.89439,59.77695 0,0 -42.83287,-37.38699 -68.16955,-50.61836 z"
         id="path4173-5-4"
         inkscape:connector-curvature="0"
         sodipodi:nodetypes="zzcz"
         transform="matrix(0.84293302,-0.87497895,0.84293302,0.87497895,-345.56397,433.6321)" />
      <path
         style="display:inline;fill:#ff001e;fill-opacity:1;fill-rule:evenodd;stroke:none;stroke-width:2.80315304px;stroke-linecap:butt;stroke-linejoin:miter;stroke-opacity:1"
         d="m 862.96696,414.65346 c -17.00753,-2.56278 -57.45165,8.38252 -62.50309,20.42203 -5.05142,12.03952 59.19093,-11.45077 95.28012,3.50892 0,0 -15.76945,-21.36817 -32.77703,-23.93095 z"
         id="path4173-5-8-2-1"
         inkscape:connector-curvature="0"
         sodipodi:nodetypes="zzcz"
         transform="matrix(0.84293302,-0.87497895,0.84293302,0.87497895,-345.56397,433.6321)" />
      <path
         style="display:inline;fill:#c80014;fill-opacity:1;fill-rule:evenodd;stroke:none;stroke-width:2.80315304px;stroke-linecap:butt;stroke-linejoin:miter;stroke-opacity:1"
         d="m 984.22511,142.77878 c 0,0 30.18829,45.52495 24.78609,39.73232 -28.66157,-30.73324 -37.11193,-22.11043 -37.11193,-22.11043 z"
         id="path4173-8-8"
         inkscape:connector-curvature="0"
         sodipodi:nodetypes="cscc" />
      <path
         style="display:inline;fill:#c80014;fill-opacity:1;fill-rule:evenodd;stroke:none;stroke-width:2.80315304px;stroke-linecap:butt;stroke-linejoin:miter;stroke-opacity:1"
         d="m 1005.3622,203.32589 c 0,0 37.5954,32.02625 28.2641,30.51614 -7.2049,-1.16598 -17.4681,-1.20925 -17.4681,-1.20925 z"
         id="path4173-8-8-8"
         inkscape:connector-curvature="0"
         sodipodi:nodetypes="cscc" />
    </g>
  </g>
</svg>
