<?xml version="1.0" encoding="UTF-8" standalone="no"?>
<!-- Created with Inkscape (http://www.inkscape.org/) -->

<svg
   xmlns:dc="http://purl.org/dc/elements/1.1/"
   xmlns:cc="http://creativecommons.org/ns#"
   xmlns:rdf="http://www.w3.org/1999/02/22-rdf-syntax-ns#"
   xmlns:svg="http://www.w3.org/2000/svg"
   xmlns="http://www.w3.org/2000/svg"
   xmlns:sodipodi="http://sodipodi.sourceforge.net/DTD/sodipodi-0.dtd"
   xmlns:inkscape="http://www.inkscape.org/namespaces/inkscape"
   width="300mm"
   height="300mm"
   viewBox="0 0 1062.9921 1062.9921"
   id="svg2"
   version="1.1"
   inkscape:version="0.91 r13725"
   sodipodi:docname="astrocats7.svg"
   inkscape:export-filename="C:\Development\UC Rocketry\Nasa SLI\Logo\astrocats3.png"
   inkscape:export-xdpi="90"
   inkscape:export-ydpi="90">
  <defs
     id="defs4" />
  <sodipodi:namedview
     id="base"
     pagecolor="#ffffff"
     bordercolor="#666666"
     borderopacity="1.0"
     inkscape:pageopacity="0.0"
     inkscape:pageshadow="2"
     inkscape:zoom="0.49497475"
     inkscape:cx="797.5804"
     inkscape:cy="699.7708"
     inkscape:document-units="px"
     inkscape:current-layer="layer1"
     showgrid="false"
     inkscape:window-width="1920"
     inkscape:window-height="1051"
     inkscape:window-x="1911"
     inkscape:window-y="-9"
     inkscape:window-maximized="1"
     showguides="false" />
  <metadata
     id="metadata7">
    <rdf:RDF>
      <cc:Work
         rdf:about="">
        <dc:format>image/svg+xml</dc:format>
        <dc:type
           rdf:resource="http://purl.org/dc/dcmitype/StillImage" />
        <dc:title></dc:title>
      </cc:Work>
    </rdf:RDF>
  </metadata>
  <g
     inkscape:label="Layer 1"
     inkscape:groupmode="layer"
     id="layer1"
     transform="translate(0,10.629921)"
     style="display:inline">
    <path
       style="fill:#ffff00;fill-rule:evenodd;stroke:#000000;stroke-width:1.26064801px;stroke-linecap:butt;stroke-linejoin:miter;stroke-opacity:1"
       d="M 290.16407,601.81247 C 249.22402,819.28246 193.67098,918.15429 167.92614,884.69775 148.88635,859.95458 147.9681,877.00049 116.17893,761.78486 104.98416,721.2109 50.034954,337.23642 50.034954,337.23642 c 0,0 -25.383365,445.307 18.246891,541.88795 43.630265,96.58097 62.527935,122.48793 99.342925,133.88083 86.01074,-7.0487 87.56258,-95.46859 188.13622,-147.42865 136.94729,-70.75203 163.98073,-35.62679 163.98073,-35.62679 L 421.59799,662.00801 Z"
       id="path4346"
       inkscape:connector-curvature="0"
       sodipodi:nodetypes="cssczcsccc" />
    <g
       id="g4319"
       transform="matrix(0.94626732,0,0,0.95018541,77.025666,30.775494)">
      <path
         style="display:inline;fill:#c80014;fill-opacity:1;fill-rule:evenodd;stroke:none;stroke-width:2.80315304px;stroke-linecap:butt;stroke-linejoin:miter;stroke-opacity:1"
         d="m 932.36044,34.042618 c 0,0 33.68976,68.515462 26.58408,60.505741 C 921.24511,52.052092 902.04016,71.457723 902.04016,71.457723 Z"
         id="path4173-8-8"
         inkscape:connector-curvature="0"
         sodipodi:nodetypes="cscc" />
      <path
         style="display:inline;fill:#c80014;fill-opacity:1;fill-rule:evenodd;stroke:none;stroke-width:2.80315304px;stroke-linecap:butt;stroke-linejoin:miter;stroke-opacity:1"
         d="m 938.56834,103.63704 c 0,0 53.83801,43.21218 38.76931,43.16079 -11.63497,-0.0396 -28.63732,2.58548 -28.63732,2.58548 z"
         id="path4173-8-8-8"
         inkscape:connector-curvature="0"
         sodipodi:nodetypes="cscc" />
      <path
         style="display:inline;fill:#ff001f;fill-opacity:1;fill-rule:evenodd;stroke:none;stroke-width:1.00877702px;stroke-linecap:butt;stroke-linejoin:miter;stroke-opacity:1"
         d="m 221.50686,644.35308 140.68182,56.85154 54.2516,145.75865 C 627.832,694.73786 696.96295,611.73436 774.29206,445.24322 c 19.56343,-42.12046 15.73991,-80.64192 22.67083,-102.44506 17.62567,-55.44632 34.78799,-81.19668 34.78799,-81.19668 l 149.35483,-90.17678 -2.27802,-41.72447 -110.62883,32.41738 50.40422,-83.13828 22.4012,-24.670398 -10.24009,-23.154369 c 0,0 -28.44935,-15.498795 -43.2656,-8.453852 -14.52502,6.906462 -2.93723,8.681997 -21.12598,7.012118 -21.07206,-1.934566 -43.24326,-9.018524 -43.24326,-9.018524 l -90.61968,24.744718 0.88159,-1.253101 -141.5968,38.249755 c 0,0 49.00715,6.940862 75.14339,60.961233 C 722.15799,257.53014 509.99196,297.75188 487.3492,320.87534 328.78138,482.80941 290.67616,549.69506 221.50686,644.35308 Z"
         id="path3352"
         inkscape:connector-curvature="0"
         sodipodi:nodetypes="cccsscccccccssccccssc" />
      <path
         style="display:inline;fill:#000000;fill-opacity:1;fill-rule:evenodd;stroke:#000000;stroke-width:2.15213609px;stroke-linecap:butt;stroke-linejoin:miter;stroke-opacity:1"
         d="m 419.45771,396.83261 c 0,0 -110.1681,-37.61801 -191.06269,37.23025 C 147.50042,508.91114 52.618305,711.88384 52.618305,711.88384 L 222.31875,643.85762 Z"
         id="path3354"
         inkscape:connector-curvature="0"
         sodipodi:nodetypes="czccc" />
      <path
         style="display:inline;fill:#000000;fill-opacity:1;fill-rule:evenodd;stroke:#000000;stroke-width:2.15213609px;stroke-linecap:butt;stroke-linejoin:miter;stroke-opacity:1"
         d="m 655.17312,641.57512 c 0,0 32.73588,117.89993 -39.66633,201.99018 -72.40219,84.09025 -265.72683,179.9311 -265.72683,179.9311 l 68.1324,-178.55953 z"
         id="path3354-5"
         inkscape:connector-curvature="0"
         sodipodi:nodetypes="czccc" />
      <path
         style="display:inline;fill:#000000;fill-opacity:1;fill-rule:evenodd;stroke:#000000;stroke-width:1.9643718px;stroke-linecap:butt;stroke-linejoin:miter;stroke-opacity:1"
         d="m 543.81226,513.4386 c 0,0 -35.8302,13.3971 -51.64806,25.56252 -125.20091,96.29136 -320.25669,358.38419 -320.25669,358.38419 0,0 252.28259,-203.43454 346.95642,-332.77031 11.46033,-15.65619 24.94833,-51.1764 24.94833,-51.1764 z"
         id="path3371"
         inkscape:connector-curvature="0"
         sodipodi:nodetypes="cscsc" />
      <g
         id="g4343"
         transform="matrix(0.56889405,0.03451098,0.03479736,0.56889405,366.76676,-24.443225)">
        <path
           transform="matrix(0.84293302,-0.87497895,0.84293302,0.87497895,-345.56397,433.6321)"
           sodipodi:nodetypes="scsccs"
           inkscape:connector-curvature="0"
           id="path4173"
           d="m 851.11707,488.27949 c -20.76624,-38.27241 -46.14626,-33.03617 -46.14626,-33.03617 0,0 50.24433,2.25423 84.57923,23.16718 24.69837,15.04347 47.16493,43.63867 47.16493,43.63867 l -56.8238,-4.36401 c 0,0 -23.43773,-19.57067 -28.7741,-29.40567 z"
           style="display:inline;fill:#000000;fill-opacity:1;fill-rule:evenodd;stroke:none;stroke-width:2.80315304px;stroke-linecap:butt;stroke-linejoin:miter;stroke-opacity:1" />
      </g>
      <path
         style="display:inline;fill:#000000;fill-opacity:1;fill-rule:evenodd;stroke:#000000;stroke-width:2.62772775px;stroke-linecap:butt;stroke-linejoin:miter;stroke-opacity:1"
         d="M 921.09159,25.222655 C 842.52632,94.88635 752.1011,149.02867 697.2198,230.76646 758.84998,148.37308 854.61759,95.792657 921.09159,25.222655 Z"
         id="path4198"
         inkscape:connector-curvature="0"
         sodipodi:nodetypes="ccc" />
      <path
         style="display:inline;fill:#000000;fill-opacity:1;fill-rule:evenodd;stroke:#000000;stroke-width:1.80168188px;stroke-linecap:butt;stroke-linejoin:miter;stroke-opacity:1"
         d="M 919.43496,27.773552 C 875.70621,80.253961 798.20839,146.21167 780.46697,202.90976 803.07258,144.43625 889.89297,80.735942 919.43496,27.773552 Z"
         id="path4198-3"
         inkscape:connector-curvature="0"
         sodipodi:nodetypes="ccc" />
      <path
         style="display:inline;fill:#000000;fill-opacity:1;fill-rule:evenodd;stroke:#000000;stroke-width:2.02032566px;stroke-linecap:butt;stroke-linejoin:miter;stroke-opacity:1"
         d="M 920.57638,25.510366 C 894.62493,88.076253 840.31984,111.27228 847.38307,169.26249 845.22495,108.05383 911.74345,83.901767 920.57638,25.510366 Z"
         id="path4198-3-7"
         inkscape:connector-curvature="0"
         sodipodi:nodetypes="ccc" />
      <path
         style="display:inline;fill:#000000;fill-opacity:1;fill-rule:evenodd;stroke:#000000;stroke-width:1.8308121px;stroke-linecap:butt;stroke-linejoin:miter;stroke-opacity:1"
         d="M 920.83099,26.05057 C 912.1311,82.283974 869.30803,105.87322 890.73424,151.14571 873.13904,102.19478 939.07482,43.275023 920.83099,26.05057 Z"
         id="path4198-3-7-7"
         inkscape:connector-curvature="0"
         sodipodi:nodetypes="ccc" />
      <path
         style="display:inline;fill:#ff001e;fill-opacity:1;fill-rule:evenodd;stroke:none;stroke-width:2.80315304px;stroke-linecap:butt;stroke-linejoin:miter;stroke-opacity:1"
         d="m 751.82011,13.324822 c -24.69331,12.996155 -59.27242,55.344596 -48.47049,67.801331 10.80201,12.456702 57.07923,-58.910254 122.96759,-80.0929421 0,0 -49.80373,-0.7045771 -74.4971,12.2916111 z"
         id="path4173-5-8-2"
         inkscape:connector-curvature="0"
         sodipodi:nodetypes="zzcz" />
      <path
         style="display:inline;fill:#c80014;fill-opacity:1;fill-rule:evenodd;stroke:none;stroke-width:2.80315304px;stroke-linecap:butt;stroke-linejoin:miter;stroke-opacity:1"
         d="m 616.51045,84.02647 c 0,0 105.4736,75.86651 101.03722,-19.343264 C 667.86864,90.479474 616.51045,84.02647 616.51045,84.02647 Z"
         id="path4173-8"
         inkscape:connector-curvature="0"
         sodipodi:nodetypes="ccc" />
      <path
         style="display:inline;fill:#ff001e;fill-opacity:1;fill-rule:evenodd;stroke:none;stroke-width:2.80315304px;stroke-linecap:butt;stroke-linejoin:miter;stroke-opacity:1"
         d="m 770.60649,23.417085 c -17.4453,13.466259 -44.13087,60.869897 -38.19445,76.424002 5.93646,15.554113 43.02239,-65.253129 88.31036,-85.233292 0,0 -32.67058,-4.6570141 -50.11591,8.80929 z"
         id="path4173-5-8-2-1"
         inkscape:connector-curvature="0"
         sodipodi:nodetypes="zzcz" />
    </g>
  </g>
</svg>
