G04 #@! TF.FileFunction,Copper,L1,Top,Signal*
%FSLAX46Y46*%
G04 Gerber Fmt 4.6, Leading zero omitted, Abs format (unit mm)*
G04 Created by KiCad (PCBNEW 4.0.1-stable) date 1/13/2016 10:53:09 PM*
%MOMM*%
G01*
G04 APERTURE LIST*
%ADD10C,0.100000*%
%ADD11C,1.998980*%
%ADD12C,2.499360*%
G04 APERTURE END LIST*
D10*
D11*
X69850000Y-143510000D03*
X68580000Y-51435000D03*
X68580000Y-54610000D03*
X68580000Y-57785000D03*
X68580000Y-16510000D03*
X45720000Y-38100000D03*
X44450000Y-22860000D03*
X54610000Y-22860000D03*
X63500000Y-143510000D03*
X63500000Y-33020000D03*
X63500000Y-29845000D03*
X63500000Y-26035000D03*
X63500000Y-22860000D03*
X29210000Y-139700000D03*
X19050000Y-139700000D03*
X55245000Y-143510000D03*
X59055000Y-143510000D03*
X39370000Y-139700000D03*
X29210000Y-139700000D03*
X47625000Y-143510000D03*
X51435000Y-143510000D03*
X33020000Y-33020000D03*
X33020000Y-29845000D03*
X33020000Y-26035000D03*
X33020000Y-22860000D03*
X33020000Y-132080000D03*
X33020000Y-128905000D03*
X33020000Y-125095000D03*
X33020000Y-121920000D03*
X33020000Y-118110000D03*
X33020000Y-114935000D03*
X33020000Y-111125000D03*
X33020000Y-107950000D03*
X33020000Y-81280000D03*
X33020000Y-78105000D03*
X33020000Y-74295000D03*
X33020000Y-71120000D03*
X33020000Y-95250000D03*
X33020000Y-92075000D03*
X33020000Y-88265000D03*
X33020000Y-85090000D03*
X33020000Y-95250000D03*
X33020000Y-92075000D03*
X33020000Y-88265000D03*
X33020000Y-85090000D03*
X129505000Y-103180000D03*
X133315000Y-103180000D03*
X129505000Y-75240000D03*
X133315000Y-75240000D03*
X130140000Y-85400000D03*
X130140000Y-95560000D03*
X140300000Y-85400000D03*
X140300000Y-95560000D03*
D12*
X140935000Y-80320000D03*
X144110000Y-80320000D03*
X147285000Y-80320000D03*
X183935000Y-80320000D03*
X187110000Y-80320000D03*
X190285000Y-80320000D03*
D11*
X183300000Y-85400000D03*
X183300000Y-95560000D03*
X173140000Y-85400000D03*
X173140000Y-95560000D03*
X172505000Y-75240000D03*
X176315000Y-75240000D03*
X172505000Y-103180000D03*
X176315000Y-103180000D03*
X172505000Y-52180000D03*
X176315000Y-52180000D03*
X172505000Y-24240000D03*
X176315000Y-24240000D03*
X173140000Y-34400000D03*
X173140000Y-44560000D03*
X183300000Y-34400000D03*
X183300000Y-44560000D03*
D12*
X183935000Y-29320000D03*
X187110000Y-29320000D03*
X190285000Y-29320000D03*
X140935000Y-29320000D03*
X144110000Y-29320000D03*
X147285000Y-29320000D03*
D11*
X140300000Y-34400000D03*
X140300000Y-44560000D03*
X130140000Y-34400000D03*
X130140000Y-44560000D03*
X129505000Y-24240000D03*
X133315000Y-24240000D03*
X129505000Y-52180000D03*
X133315000Y-52180000D03*
X33020000Y-59690000D03*
X33020000Y-56515000D03*
X33020000Y-52705000D03*
X33020000Y-49530000D03*
X33020000Y-81280000D03*
X33020000Y-78105000D03*
X33020000Y-74295000D03*
X33020000Y-71120000D03*
X40005000Y-143510000D03*
X43815000Y-143510000D03*
X81280000Y-22860000D03*
X81280000Y-26035000D03*
X81280000Y-29845000D03*
X81280000Y-33020000D03*
X81280000Y-36195000D03*
X81280000Y-39370000D03*
X81280000Y-42545000D03*
X92710000Y-54610000D03*
X92710000Y-57785000D03*
X92710000Y-61595000D03*
X92710000Y-64770000D03*
M02*
